<svg width="100" height="67" viewBox="0 0 100 67" fill="none" xmlns="http://www.w3.org/2000/svg">
<path d="M35.5564 12.9373L27.967 12.9373C26.8316 11.5748 25.4094 10.4872 23.7003 9.67444C22.0031 8.86173 20.2582 8.45537 18.4774 8.45537C15.2265 8.45537 12.4537 9.67444 10.1231 12.1126C7.80447 14.5507 6.64515 17.455 6.64515 20.8373C6.64515 24.0285 7.81642 26.8491 10.159 29.2753C12.5134 31.7134 15.2982 32.9325 18.5132 32.9325C20.2223 32.9325 21.8597 32.5739 23.4015 31.8329C24.9432 31.1039 26.3416 30.076 27.6085 28.7494L35.3532 28.7494C34.0146 31.9524 31.8035 34.534 28.6602 36.4821C25.5289 38.4303 22.1824 39.4103 18.6208 39.4103C13.4935 39.4103 9.10721 37.5578 5.46194 33.8528C1.82861 30.1716 0 25.7495 0 20.6103C0 15.471 1.81666 11.1206 5.43803 7.46338C9.08331 3.80615 13.4098 1.97754 18.4295 1.97754C22.1226 1.97754 25.5647 2.96953 28.7439 4.95352C31.923 6.9375 34.1939 9.60273 35.5564 12.9373Z" fill="white"/>
<path d="M74.3994 20.9576C74.3994 23.0969 72.6544 24.8419 70.515 24.8419C68.3757 24.8419 66.6307 23.0969 66.6307 20.9576C66.6307 18.8182 68.3637 17.0732 70.515 17.0732C72.6664 17.0732 74.3994 18.8062 74.3994 20.9576Z" fill="white"/>
<path d="M87.1161 39.829C83.8293 39.829 80.937 38.6578 78.4989 36.363C76.0488 34.0444 74.8058 31.2118 74.8058 27.949V27.1124L82.6581 27.1124V27.949C82.6581 29.1322 83.1122 30.0884 84.0445 30.8892C85.0126 31.7138 86.148 32.1082 87.4985 32.1082C88.8491 32.1082 89.8769 31.666 90.7852 30.7696C91.7055 29.8733 92.1477 28.8095 92.1477 27.5427C92.1477 25.726 91.6936 24.5547 90.7733 23.9333C89.6976 23.2281 88.8132 22.7978 88.1559 22.6783C87.4388 22.5469 86.6141 22.4871 85.6221 22.4871L84.164 22.4871L84.164 14.9097L85.4309 14.9097C86.7695 14.9097 87.8571 14.6826 88.6459 14.2524C88.873 14.1209 89.5901 13.7145 89.5901 12.113C89.5901 11.4198 89.3749 10.8939 88.9208 10.4995C88.4546 10.0812 87.869 9.87804 87.14 9.87804C86.5543 9.87804 86.1002 10.0573 85.7297 10.4637C85.3472 10.87 85.156 11.384 85.156 12.0174V12.854L77.3037 12.854V12.0174C77.3037 9.34021 78.2837 7.00962 80.208 5.07345C82.1322 3.13727 84.4628 2.15723 87.14 2.15723C89.8171 2.15723 92.327 3.13727 94.3588 5.06149C96.4025 7.00962 97.4423 9.39997 97.4423 12.1728C97.4423 13.595 97.1794 14.9097 96.6416 16.081C96.295 16.8578 95.805 17.551 95.1954 18.1606C96.5579 18.9135 97.6455 20.025 98.4582 21.4831C99.4861 23.3237 100 25.3675 100 27.5546C100 31.0804 98.7212 34.0444 96.2113 36.363C93.7134 38.6578 90.6657 39.829 87.128 39.829H87.1161ZM76.5029 28.7856C76.6942 31.2477 77.722 33.3273 79.6343 35.144C81.7856 37.1638 84.2237 38.1558 87.1041 38.1558C90.1996 38.1558 92.8768 37.1399 95.052 35.132C97.2392 33.1241 98.3029 30.6382 98.3029 27.5666C98.3029 25.6663 97.8606 23.8974 96.9762 22.3078C96.1157 20.7541 94.9205 19.7262 93.319 19.1765L91.7294 18.6147L93.1397 17.6825C94.0241 17.0969 94.6934 16.332 95.0998 15.4117C95.5301 14.4555 95.7452 13.3679 95.7452 12.1967C95.7452 9.86608 94.9086 7.94186 93.1875 6.29252C91.4545 4.64318 89.4705 3.84242 87.128 3.84242C84.7855 3.84242 83.0047 4.63123 81.3912 6.25667C79.9689 7.67892 79.1921 9.2924 79.0128 11.1808L83.5425 11.1808C83.674 10.4756 83.9967 9.85413 84.4867 9.3163C85.1799 8.5753 86.0643 8.19284 87.128 8.19284C88.2754 8.19284 89.2554 8.55139 90.0323 9.24459C90.845 9.97365 91.2513 10.9417 91.2513 12.113C91.2513 14.2524 90.2713 15.2563 89.4586 15.7105C88.4905 16.2483 87.3073 16.5351 85.8372 16.5829V20.8139C86.8292 20.8139 87.6897 20.8975 88.4427 21.029C89.3391 21.1963 90.3908 21.6863 91.6816 22.5349C93.0919 23.4671 93.809 25.1523 93.809 27.5427C93.809 29.2637 93.1875 30.7577 91.9445 31.9648C90.7255 33.1719 89.2196 33.7934 87.4746 33.7934C85.7297 33.7934 84.1998 33.2436 82.933 32.168C81.8453 31.2358 81.2 30.1003 81.0207 28.7856L76.5029 28.7856Z" fill="white"/>
<path d="M41.3171 0.101563L47.1495 2.03774L41.4605 14.6707L38.4009 13.6668L41.3171 0.101563Z" fill="white"/>
<path d="M61.396 23.2638C61.396 23.2638 61.3243 23.204 61.3004 23.1801C59.7467 21.9969 57.8583 21.0766 55.6114 20.4073C53.3644 19.738 51.9302 19.248 51.3087 18.9373C50.6873 18.6146 50.3765 18.0409 50.3765 17.1923C50.3765 16.4274 50.6275 15.8179 51.1414 15.3757C51.6553 14.9334 52.3246 14.7183 53.1374 14.7183C53.8784 14.7183 54.4999 14.8976 54.9779 15.2442C55.456 15.5908 55.7548 16.1047 55.8624 16.8099L62.7824 16.8099C62.7824 14.3359 61.8263 12.1965 59.8901 10.4037C57.9659 8.62294 55.7548 7.72656 53.2808 7.72656C50.5558 7.72656 48.2252 8.57513 46.289 10.2603C44.3409 11.9575 43.3609 14.1327 43.3609 16.8099C43.3609 19.0568 44.1019 20.8615 45.5839 22.224C47.0659 23.5745 48.8706 24.6024 51.01 25.3075C53.1493 26.0127 54.6194 26.5864 55.4201 27.0166C56.2209 27.4588 56.6273 28.1998 56.6273 29.2516C56.6273 30.136 56.3046 30.8173 55.6711 31.3073C55.0257 31.7973 54.2489 32.0483 53.3286 32.0483C52.3366 32.0483 51.5 31.7376 50.8426 31.1161C50.1853 30.4946 49.767 29.7058 49.5877 28.7496L42.333 28.7496C42.333 31.7615 43.3489 34.2235 45.3807 36.1238C47.4125 38.0122 49.9582 38.9683 53.0059 38.9683H53.0298C57.1531 38.9683 60.0574 36.7095 60.0574 36.7095C63.631 34.0562 63.8461 30.1958 63.8461 30.1958C64.109 25.6183 62.0175 23.7419 61.396 23.2877V23.2638Z" fill="white"/>
<path d="M13.8982 57.1631C13.8982 57.2823 13.8982 57.4314 13.9131 57.5804C13.9131 57.4388 13.9056 57.2972 13.8982 57.1631Z" fill="white"/>
<path d="M16.7598 63.4008L16.2754 63.2518C16.2754 63.2518 16.3947 64.7348 15.9326 65.1074C15.9326 65.1074 15.7016 65.4725 15.3141 64.8913C15.3141 64.8913 14.0845 63.5797 13.9355 58.5346V58.5197L16.6332 58.5197V57.9831L13.9206 57.9831C13.9206 57.9831 13.9206 57.9608 13.9206 57.9533C13.9206 57.9608 13.9206 57.9757 13.9206 57.9831C13.9206 57.7596 13.9057 57.469 13.9057 57.156C13.9057 56.8355 13.9057 56.4853 13.9057 56.1201H13.3691C13.3691 56.1201 13.3468 56.8877 13.3691 57.9831L8.86804 57.9831L8.86804 58.5197L13.3915 58.5197C13.4884 60.815 13.8386 64.1088 15.0086 65.3458C15.0086 65.3458 15.7463 66.2774 16.3053 65.5098C16.8642 64.7348 16.7673 63.4008 16.7673 63.4008H16.7598ZM13.8833 56.7461C13.8833 56.7088 13.8833 56.6641 13.8833 56.6343C13.8833 56.6716 13.8833 56.7088 13.8833 56.7461ZM13.8759 56.5002C13.8759 56.4555 13.8759 56.4182 13.8759 56.3958C13.8759 56.4257 13.8759 56.4629 13.8759 56.5002Z" fill="white"/>
<path d="M13.3169 64.2202C13.3169 64.2202 12.4749 64.4885 11.3869 64.7419L11.3869 60.9637H13.071V60.4346L9.08415 60.4346L9.08415 60.9637L10.8428 60.9637L10.8428 64.8537C10.1945 64.9953 9.49402 65.1145 8.86804 65.1592L8.86804 65.7405C8.86804 65.7405 11.1111 65.5244 13.4064 64.7643L13.3244 64.2128L13.3169 64.2202Z" fill="white"/>
<path d="M29.2421 61.9846C28.4969 61.1947 28.169 60.6656 28.0423 60.4196C28.4149 59.8831 28.7577 59.2422 28.9887 58.5342V57.9828H27.8262L27.8262 56.1123L27.2747 56.1123L27.2747 57.9902H25.8886V58.5193L28.4223 58.5193C28.4223 58.5193 28.0796 60.1961 25.7843 61.9995L25.9781 62.5584C25.9781 62.5584 26.5891 62.1262 27.2822 61.3586L27.2822 65.8969H27.8187L27.8187 60.9934C28.1988 61.6865 28.8993 62.4317 28.8993 62.4317L29.2346 61.9846H29.2421Z" fill="white"/>
<path d="M31.7311 64.9505L31.7311 59.503H33.5643V58.9516H31.7311L31.7311 56.1123H31.1946L31.1946 58.9516L29.3613 58.9516V59.503L31.1946 59.503L31.1946 64.9505H29.0483V65.4573L33.8848 65.4573V64.9505L31.7311 64.9505Z" fill="white"/>
<path d="M14.9489 56.1348L14.6807 56.5595C14.6807 56.5595 15.6494 57.2079 16.0071 57.737L16.3127 57.2898C16.3127 57.2898 16.1711 57.0141 14.9415 56.1348H14.9489Z" fill="white"/>
<path d="M6.17787 60.9639H7.92911L7.92911 60.4199H6.02882L6.02882 58.5121H7.94402L7.94402 57.9681H6.02882L6.02882 56.0977H5.48481L5.48481 57.9756L4.31484 57.9756C4.32229 57.9383 4.33719 57.9011 4.34464 57.8638C4.44152 57.4465 4.51604 56.9845 4.51604 56.5001V56.4554L3.99439 56.4479C4.01675 58.3407 3.08523 59.5405 3.08523 59.5405L3.11505 59.5703L3.45784 59.9131C3.77828 59.4884 4.00184 59.004 4.16579 58.527L5.49226 58.527L5.49226 60.4273L3.37586 60.4273L3.37586 60.9564L5.30596 60.9564C5.23889 61.2024 5.0675 61.7538 4.67254 62.4543C4.29993 63.1101 3.72612 63.8926 2.89148 64.6527L3.27899 65.0849C3.27899 65.0849 3.71866 64.69 4.21796 64.0565C4.7098 63.4529 5.2538 62.6704 5.49972 61.9178L5.49972 65.8972H6.04372L6.04372 61.9327C6.86346 64.0714 7.94402 65.1222 7.94402 65.1222L8.29427 64.6005C6.93053 63.0803 6.31945 61.3812 6.19276 60.9713L6.17787 60.9639Z" fill="white"/>
<path d="M2.67531 62.1411L3.01811 61.6418C3.01811 61.6418 2.18347 59.9874 1.90029 59.0633L1.90029 58.5193L2.91378 58.5193L2.91378 57.9753L1.89285 57.9753L1.89285 56.1123H1.35629L1.35629 57.9828H0.126685L0.126685 58.5268H1.34883C1.32648 58.8994 1.17744 60.6656 0 62.6478L0.417317 63.0875C0.417317 63.0875 1.11036 61.8281 1.37119 60.8444L1.37119 65.9044H1.90774L1.90774 60.3973C1.96736 60.5985 2.07915 60.9338 2.33252 61.448C2.43685 61.6865 2.55608 61.9324 2.68277 62.1485L2.67531 62.1411Z" fill="white"/>
<path d="M21.4845 56.1201H20.9927C20.9927 56.1201 19.4501 58.557 17.2443 59.6301L17.4753 60.1368C17.4753 60.1368 19.2116 59.4736 21.2237 56.6343C21.2237 56.6343 22.7588 59.0339 24.9721 60.1368L25.218 59.6301C25.218 59.6301 23.2283 58.7135 21.4771 56.1201H21.4845Z" fill="white"/>
<path d="M23.4668 59.4951L19.0029 59.4951V60.0391L23.4668 60.0391V59.4951Z" fill="white"/>
<path d="M20.5306 62.0965L24.9944 62.0965V61.5674L17.4603 61.5674V62.0965L19.9195 62.0965L18.6303 64.9656C18.3248 64.9656 17.9969 64.9656 17.6541 64.9656V65.5096C17.6541 65.5096 21.6857 65.5841 23.8021 65.0326C24.2119 65.7033 24.361 66.1281 24.361 66.1281L24.7709 65.7257C24.1523 64.2949 22.4905 62.5213 22.4905 62.5213L22.1403 62.9088C22.729 63.5198 23.1761 64.0862 23.504 64.5706C22.9227 64.7196 21.6484 64.9432 19.219 64.973L20.5306 62.1039V62.0965Z" fill="white"/>
<path d="M36.7762 56.5371L40.5022 57.1109L40.1222 58.7802L36.5824 57.3419L36.7762 56.5371Z" fill="white"/>
<path d="M36.7986 59.5479L40.5247 60.1291L40.1446 61.7984L36.6049 60.3601L36.7986 59.5479Z" fill="white"/>
<path d="M60.7423 61.9254C62.4786 59.5481 62.7618 57.1709 62.7618 57.1709L55.5332 57.1709V58.2515L60.6528 58.2515C60.3026 62.5141 55.0339 65.0627 55.0339 65.0627V65.9569C57.3292 65.2266 58.9537 64.0194 60.0939 62.7227C61.6663 64.1014 62.9257 65.9346 62.9257 65.9346L64.3416 64.5187C63.6411 63.6766 61.6067 62.4321 60.7348 61.9179L60.7423 61.9254Z" fill="white"/>
<path d="M75.3559 61.463C77.4127 58.8101 77.5916 56.2764 77.5916 56.2764L69.5507 56.2764V57.3942L75.3038 57.3942C74.2158 62.4318 68.9993 64.891 68.9993 64.891V65.9343C71.5553 64.9804 73.3588 63.6689 74.6182 62.32C75.3559 63.0354 77.2264 64.9134 77.763 66.0163L79.2683 64.4513C79.2683 64.4513 77.0103 62.4318 75.3485 61.463H75.3559Z" fill="white"/>
<path d="M81.1238 64.8615V65.9346C81.1238 65.9346 88.3896 65.5098 88.3896 61.3217L88.3896 56.2617L86.5266 56.2617L86.5266 61.2546C86.5266 61.3143 86.5266 61.3664 86.5266 61.426C86.5266 61.4633 86.5266 61.4931 86.5266 61.5229C86.5266 61.5676 86.5117 61.6123 86.5042 61.6571C86.4893 61.7092 86.4744 61.7688 86.4595 61.821C86.4371 61.8881 86.4148 61.9477 86.385 62.0073C86.3552 62.0818 86.3179 62.1489 86.2807 62.216C86.2359 62.2905 86.1912 62.3725 86.1391 62.4395C86.0794 62.5215 86.0124 62.6035 85.9528 62.678C85.8782 62.7674 85.7963 62.8494 85.7143 62.9239C85.6249 63.0133 85.5205 63.0953 85.4236 63.1773C85.3119 63.2667 85.1926 63.3487 85.0734 63.4307C84.9318 63.5201 84.7977 63.6021 84.6486 63.684C84.4921 63.7735 84.3207 63.8554 84.1568 63.93C83.9705 64.0119 83.7767 64.0939 83.583 64.1684C83.3669 64.2504 83.1508 64.3249 82.9272 64.3994C82.6813 64.4814 82.4279 64.5485 82.182 64.6155C81.8988 64.6901 81.6231 64.7571 81.3399 64.8168C81.2728 64.8317 81.1983 64.8466 81.1312 64.8615H81.1238Z" fill="white"/>
<path d="M83.0688 56.291H81.3026L81.3026 61.813H83.0688L83.0688 56.291Z" fill="white"/>
<path d="M100 60.5986L90.2825 60.5986V61.6792L100 61.6792V60.5986Z" fill="white"/>
<path d="M68.3732 61.1424C68.3732 61.7013 67.9186 62.1484 67.3671 62.1484C66.8157 62.1484 66.3536 61.6939 66.3536 61.1424C66.3536 60.5909 66.8082 60.1289 67.3671 60.1289C67.926 60.1289 68.3732 60.5835 68.3732 61.1424Z" fill="white"/>
<path d="M62.4338 55.8438H63.7454L63.4399 58.7799H62.7468L62.4338 55.8438Z" fill="white"/>
<path d="M64.0883 55.8291H65.3924L65.0868 58.7652H64.4012L64.0883 55.8291Z" fill="white"/>
<path d="M55.4139 60.5908L46.2031 60.5908V61.6714L55.4139 61.6714V60.5908Z" fill="white"/>
<path d="M36.7688 64.2281V65.9942C36.7688 65.9942 43.513 66.4339 46.1734 58.7582L45.3909 58.2217C45.3909 58.2217 43.2149 64.0567 36.7688 64.2281Z" fill="white"/>
</svg>
