<svg width="200" height="55" viewBox="0 0 200 55" fill="none" xmlns="http://www.w3.org/2000/svg">
<path d="M150.054 24.7363L147.489 24.7363V27.186L150.054 27.186V24.7363Z" fill="#231815"/>
<path d="M153.391 27.186H152.355V24.7363L154.92 24.7363V26.8736C154.92 27.7121 154.871 28.2875 154.772 28.5999C154.673 28.9122 154.443 29.241 154.098 29.6027C153.621 30.0795 153.029 30.3426 152.355 30.3755V29.7671C153.046 29.7014 153.391 29.0602 153.391 27.8272V27.186Z" fill="#231815"/>
<path d="M200 24.5555L197.435 24.5555V27.0051L200 27.0051V24.5555Z" fill="#231815"/>
<path d="M17.9367 14.2801L14.106 14.2801C13.5306 13.6061 12.8237 13.0471 11.9523 12.6361C11.0974 12.225 10.2261 12.0278 9.32182 12.0278C7.67776 12.0278 6.2803 12.6525 5.12946 13.8855C3.96218 15.1186 3.37033 16.5982 3.37033 18.3081C3.37033 19.9192 3.96217 21.366 5.14589 22.5991C6.32962 23.8321 7.72709 24.4569 9.35471 24.4569C10.2261 24.4569 11.0481 24.276 11.8208 23.8979C12.5935 23.5362 13.3004 23.0101 13.9416 22.336L17.838 22.336C17.164 23.9472 16.0296 25.246 14.4677 26.2324C12.8894 27.2189 11.1961 27.6957 9.40403 27.6957C6.82285 27.6957 4.60336 26.7585 2.76201 24.9008C0.920662 23.0265 0 20.7906 0 18.193C0 15.5954 0.920671 13.3923 2.74558 11.551C4.57049 9.70963 6.75708 8.78896 9.28893 8.78896C11.1467 8.78896 12.8894 9.28217 14.4842 10.2851C16.0954 11.2715 17.2297 12.6196 17.9203 14.2966L17.9367 14.2801Z" fill="#231815"/>
<path d="M32.684 23.0265C32.684 24.3253 32.3387 25.2953 31.6482 25.953C30.9577 26.6106 30.3001 27.0709 29.6589 27.3175C29.0342 27.5641 28.4094 27.6957 27.7682 27.6957C26.3544 27.6957 25.1871 27.2682 24.25 26.3804C23.3128 25.5091 22.8361 24.3747 22.8361 22.9772L26.1899 22.9772C26.2721 23.4211 26.4694 23.7828 26.7654 24.0787C27.0777 24.3747 27.4559 24.5062 27.9162 24.5062C28.3437 24.5062 28.7054 24.3911 29.0013 24.1774C29.2972 23.9472 29.4452 23.6348 29.4452 23.2238C29.4452 22.747 29.2643 22.3854 28.8862 22.1881C28.5245 21.9743 27.834 21.7113 26.864 21.3825C25.8776 21.0537 25.0391 20.5769 24.365 19.9521C23.691 19.3274 23.3457 18.4889 23.3457 17.4367C23.3457 16.1872 23.7896 15.1844 24.6938 14.3952C25.5981 13.6061 26.6667 13.2115 27.9326 13.2115C29.0835 13.2115 30.0864 13.6225 30.9906 14.461C31.8784 15.283 32.3223 16.2694 32.3223 17.4203L29.1164 17.4203C29.067 17.0915 28.9355 16.8449 28.7053 16.6805C28.4916 16.5161 28.2121 16.4339 27.8505 16.4339C27.4723 16.4339 27.1764 16.5325 26.9298 16.7462C26.6996 16.9435 26.5681 17.2394 26.5681 17.5847C26.5681 17.9793 26.716 18.2423 26.9955 18.3903C27.2915 18.5382 27.9491 18.7684 28.9848 19.0643C30.0206 19.3767 30.892 19.8042 31.5989 20.3632C32.3223 20.9057 32.6675 21.7935 32.6675 23.0101L32.684 23.0265Z" fill="#231815"/>
<path d="M45.8364 27.4984L43.5841 27.4984L43.5841 15.7269L40.7892 15.7269L40.7892 13.6225L43.5841 13.6225L43.5841 8.90405L45.8364 8.90405L45.8364 13.6225L48.9602 13.6225L48.9602 15.7269L45.8364 15.7269L45.8364 27.4984ZM44.028 27.0545H45.3926L45.3926 15.283L48.5163 15.283L48.5163 14.0664L45.3926 14.0664L45.3926 9.34795L44.028 9.34795L44.028 14.0664L41.2331 14.0664L41.2331 15.283L44.028 15.283L44.028 27.0545Z" fill="#231815"/>
<path d="M62.7045 27.4984L60.4521 27.4984L60.4521 20.1987C60.4521 19.4918 60.4028 18.8999 60.3206 18.4396C60.2219 17.9792 60.0082 17.5189 59.6794 17.0586C59.3506 16.5982 58.8738 16.2201 58.2819 15.9406C57.1146 15.3816 55.8323 15.3487 54.6485 15.9406C54.0731 16.2201 53.6457 16.5653 53.3169 17.0092C53.0045 17.4367 52.8072 17.897 52.725 18.3903C52.6428 18.8999 52.6099 19.5082 52.6099 20.2152L52.6099 27.5148L50.3575 27.5148L50.3575 8.92046L52.6099 8.92046L52.6099 15.0693C52.9716 14.6089 53.4155 14.2472 53.958 13.9513C55.487 13.1293 57.3941 13.1457 59.0711 13.902C59.9095 14.2801 60.6329 14.8226 61.2084 15.4638C61.7838 16.105 62.1948 16.8284 62.4085 17.6011C62.6058 18.3574 62.7045 19.2287 62.7045 20.2152L62.7045 27.4984ZM60.896 27.0545H62.2606L62.2606 20.1987C62.2606 19.2452 62.1619 18.4067 61.9811 17.6997C61.7838 16.9928 61.4221 16.3352 60.8795 15.7433C60.3534 15.135 59.6794 14.6418 58.8902 14.2801C57.3284 13.5732 55.5692 13.5567 54.1553 14.313C53.4648 14.6747 52.9387 15.2008 52.577 15.8913L52.166 15.7926L52.166 9.33148L50.8014 9.33148L50.8014 27.0545L52.166 27.0545L52.166 20.1987C52.166 19.4589 52.2153 18.8342 52.2975 18.3081C52.3798 17.7491 52.6099 17.223 52.9716 16.7298C53.3333 16.2365 53.8265 15.842 54.4513 15.5296C55.7336 14.9048 57.1804 14.9213 58.4628 15.5296C59.1368 15.8584 59.6629 16.2694 60.0246 16.7955C60.3863 17.3052 60.6329 17.8313 60.7316 18.3409C60.8302 18.8342 60.8795 19.4589 60.8795 20.1823L60.8795 27.038L60.896 27.0545Z" fill="#231815"/>
<path d="M67.6038 27.4983L65.3514 27.4983L65.3514 13.606L67.5052 13.606V14.9706C67.834 14.5103 68.2286 14.165 68.7218 13.902C69.4287 13.5074 70.2672 13.3265 71.1879 13.3265H71.4016V15.5789H71.1879C70.3494 15.5789 69.6424 15.8419 69.0341 16.368C68.4094 16.8941 68.0148 17.3874 67.8504 17.8477C67.686 18.3245 67.6038 18.9657 67.6038 19.7877L67.6038 27.5148V27.4983ZM65.7953 27.0544L67.1599 27.0544L67.1599 19.7548C67.1599 18.8999 67.2585 18.193 67.4394 17.6669C67.6202 17.1408 68.0641 16.5818 68.7546 16.0064C69.3794 15.4638 70.1357 15.1679 70.9741 15.1186V13.7375C70.2014 13.7704 69.5273 13.9348 68.9355 14.2637C68.2943 14.6089 67.8175 15.135 67.4887 15.8584L67.0613 15.7597V14.017L65.7789 14.017L65.7789 27.0216L65.7953 27.0544Z" fill="#231815"/>
<path d="M79.4903 27.8107C77.4845 27.8107 75.7583 27.1038 74.3608 25.7063C72.9469 24.3253 72.24 22.5826 72.24 20.5769C72.24 18.5711 72.9469 16.8613 74.3444 15.4474C75.7418 14.0335 77.4681 13.3101 79.4574 13.3101C81.5454 13.3101 83.2881 14.05 84.6362 15.4967C85.9843 16.9435 86.6584 18.8671 86.6584 21.2345V21.4482L74.4923 21.4482C74.5581 22.5333 75.0349 23.4704 75.9884 24.2925C76.9913 25.1638 78.1093 25.6077 79.3259 25.6077C80.3123 25.6077 81.2165 25.3611 82.0879 24.8514C82.9593 24.3253 83.584 23.6677 83.9621 22.8128L84.0279 22.6813L86.3789 22.6813L86.2803 22.9772C85.787 24.3582 84.8992 25.5255 83.6498 26.4297C82.3838 27.334 81.0028 27.7779 79.5232 27.7779L79.4903 27.8107ZM79.441 13.754C77.5667 13.754 75.9556 14.4281 74.6403 15.7598C73.3251 17.075 72.6674 18.7026 72.6674 20.5769C72.6674 22.4511 73.3415 24.0952 74.6568 25.394C75.972 26.7092 77.5996 27.3668 79.4903 27.3668C80.8713 27.3668 82.1701 26.9394 83.3538 26.1009C84.4554 25.3118 85.2445 24.3418 85.7213 23.1581L84.2909 23.1581C83.8635 24.013 83.1894 24.7199 82.3016 25.2625C81.3645 25.805 80.3945 26.0845 79.3259 26.0845C78.0106 26.0845 76.7776 25.6077 75.6925 24.6542C74.591 23.7006 74.0484 22.5498 74.0484 21.2509V21.0372L86.2145 21.0372C86.1816 18.8999 85.5404 17.1408 84.3074 15.8255C83.0415 14.461 81.4138 13.7869 79.441 13.7869V13.754ZM84.8828 19.8042L73.9991 19.8042L74.0484 19.5411C74.2786 18.2423 74.9198 17.1737 75.9391 16.3352C76.9584 15.4967 78.1422 15.0693 79.4738 15.0693C80.8055 15.0693 81.9235 15.5132 82.9428 16.3681C83.9621 17.223 84.6033 18.2916 84.8335 19.5411L84.8828 19.8042ZM74.5252 19.3603L84.3403 19.3603C84.0937 18.3245 83.5182 17.4367 82.6469 16.6969C81.6933 15.9077 80.6247 15.4967 79.4574 15.4967C78.2901 15.4967 77.1393 15.8913 76.2022 16.664C75.3308 17.371 74.7718 18.2752 74.5088 19.3603H74.5252Z" fill="#231815"/>
<path d="M95.4542 27.8107C93.4484 27.8107 91.7222 27.1038 90.3247 25.7063C88.9108 24.3253 88.2039 22.5826 88.2039 20.5769C88.2039 18.5711 88.9108 16.8613 90.3083 15.4474C91.7057 14.0335 93.4155 13.3101 95.4213 13.3101C97.427 13.3101 99.252 14.05 100.617 15.4967C101.965 16.9435 102.639 18.8671 102.639 21.2345V21.4482L90.4727 21.4482C90.5384 22.5333 91.0152 23.454 91.9688 24.2925C92.9716 25.1638 94.0896 25.6077 95.3062 25.6077C96.2926 25.6077 97.2133 25.3611 98.0682 24.8514C98.9396 24.3253 99.5643 23.6677 99.9425 22.8128L100.008 22.6813L102.343 22.6813L102.244 22.9772C101.751 24.3582 100.863 25.5255 99.6136 26.4297C98.3642 27.334 96.9667 27.7779 95.4871 27.7779L95.4542 27.8107ZM95.4049 13.754C93.5306 13.754 91.903 14.4281 90.6042 15.7598C89.2889 17.075 88.6313 18.7026 88.6313 20.5769C88.6313 22.4511 89.3054 24.0952 90.6371 25.394C91.9523 26.7092 93.5799 27.3668 95.4542 27.3668C96.8516 27.3668 98.1504 26.9394 99.3177 26.1009C100.436 25.2953 101.208 24.3418 101.685 23.1581L100.255 23.1581C99.8274 24.013 99.1533 24.7199 98.2655 25.2625C97.3448 25.805 96.342 26.0845 95.2733 26.0845C93.9581 26.0845 92.725 25.6077 91.6564 24.6542C90.5549 23.6842 90.0123 22.5498 90.0123 21.2509V21.0372L102.195 21.0372C102.162 18.8835 101.521 17.1408 100.288 15.8255C99.0218 14.461 97.3777 13.7869 95.4213 13.7869L95.4049 13.754ZM100.863 19.8042L89.963 19.8042L90.0123 19.5411C90.2425 18.2423 90.8837 17.1572 91.903 16.3352C92.9223 15.4967 94.1061 15.0693 95.4377 15.0693C96.7694 15.0693 97.8874 15.5132 98.9067 16.3681C99.926 17.223 100.567 18.2916 100.814 19.5411L100.863 19.8042ZM90.4891 19.3603L100.321 19.3603C100.058 18.3245 99.4986 17.4367 98.6108 16.6969C97.6737 15.9077 96.5886 15.4967 95.4213 15.4967C94.1882 15.4967 93.1196 15.8749 92.1661 16.664C91.2947 17.371 90.7357 18.2752 90.4727 19.3603H90.4891Z" fill="#231815"/>
<path d="M130.308 22.5497C129.536 24.0458 128.368 25.2624 126.856 26.1831C125.327 27.1038 123.716 27.5641 121.989 27.5641C119.326 27.5641 117.057 26.6599 115.232 24.8514C113.391 23.043 112.47 20.807 112.47 18.1272C112.47 15.4474 113.391 13.343 115.216 11.5181C117.057 9.70963 119.26 8.78896 121.841 8.78896C123.584 8.78896 125.277 9.2493 126.922 10.1535C128.582 11.0578 129.684 12.2744 130.243 13.754L128.237 13.754C127.579 12.7347 126.675 11.9456 125.524 11.3866C124.373 10.8112 123.157 10.5481 121.891 10.5481C119.836 10.5481 118.06 11.3044 116.564 12.8169C115.051 14.3459 114.312 16.105 114.312 18.1108C114.312 20.1165 115.068 22.0236 116.597 23.5362C118.126 25.0487 119.934 25.805 122.006 25.805C123.239 25.805 124.423 25.5091 125.54 24.9172C126.675 24.3253 127.596 23.5197 128.319 22.5169L130.325 22.5169L130.308 22.5497Z" fill="#231815"/>
<path d="M144.349 15.6118C142.951 14.2308 141.323 13.5403 139.449 13.5403C137.46 13.5403 135.799 14.2308 134.435 15.6282C133.054 17.0257 132.396 18.7026 132.396 20.6591C132.396 22.6155 133.087 24.2267 134.468 25.5748C135.849 26.9229 137.509 27.597 139.449 27.597C141.389 27.597 143 26.89 144.381 25.4926C145.762 24.0951 146.437 22.4182 146.437 20.4946C146.437 18.5711 145.73 17.0092 144.332 15.6282L144.349 15.6118ZM143.165 24.2595C142.162 25.3117 140.945 25.8378 139.466 25.8378C137.986 25.8378 136.769 25.3282 135.75 24.3089C134.731 23.2895 134.221 22.0729 134.221 20.6262C134.221 19.1794 134.731 17.8806 135.734 16.8448C136.737 15.8091 137.986 15.283 139.466 15.283C140.863 15.283 142.096 15.7926 143.116 16.8448C144.135 17.8806 144.661 19.0972 144.661 20.4618C144.661 21.925 144.168 23.2073 143.181 24.2595" fill="#231815"/>
<path d="M171.114 27.2846L161.808 27.2846L161.808 9.11774L163.617 9.11774L163.617 25.6241L171.114 25.6241V27.2846Z" fill="#231815"/>
<path d="M179.268 15.4967L176.145 15.4967L176.145 27.2846L174.336 27.2846L174.336 15.4967L171.541 15.4967V13.8362L174.336 13.8362V9.11774L176.145 9.11774V13.8362L179.268 13.8362V15.4967Z" fill="#231815"/>
<path d="M194.871 9.11774L193.062 9.11774L193.013 16.1872C192.503 15.3323 191.78 14.6747 190.826 14.2308C189.873 13.7704 188.87 13.5403 187.834 13.5403C185.845 13.5403 184.118 14.2143 182.721 15.546C181.307 16.8777 180.6 18.5382 180.6 20.5275C180.6 21.4482 180.764 22.3031 181.077 23.1251C181.389 23.9472 181.718 24.5062 182.08 24.8185C183.017 25.7885 183.938 26.4955 184.858 26.9394C185.779 27.3668 186.732 27.5805 187.702 27.5805C189.988 27.5805 191.813 26.6599 193.161 24.8185V27.2682L194.887 27.2682L194.887 9.11774H194.871ZM191.484 24.2595C190.448 25.3117 189.182 25.8378 187.719 25.8378C186.256 25.8378 184.973 25.3117 183.954 24.2595C182.935 23.2073 182.409 21.9579 182.409 20.4782C182.409 18.9986 182.935 17.7984 183.97 16.7955C185.006 15.7762 186.239 15.283 187.686 15.283C189.133 15.283 190.432 15.7762 191.484 16.7791C192.536 17.7819 193.062 19.015 193.062 20.4782C193.062 21.9414 192.536 23.2073 191.5 24.2595" fill="#231815"/>
<path d="M39.0135 19.9193C39.0135 21.0043 38.1421 21.8921 37.057 21.8921C35.9719 21.8921 35.1006 21.0043 35.1006 19.9193C35.1006 18.8342 35.9884 17.9464 37.057 17.9464C38.1257 17.9464 39.0135 18.8342 39.0135 19.9193Z" fill="#231815"/>
<path d="M19.0219 8.62454L21.7017 8.62454L21.0605 14.6254L19.663 14.6254L19.0219 8.62454Z" fill="#231815"/>
<path d="M59.1236 44.0297H60.2583C61.0194 44.0297 61.5708 43.8885 61.9126 43.6059C62.2544 43.3234 62.4253 42.9041 62.4253 42.3481C62.4253 41.783 62.2407 41.3774 61.8716 41.1313C61.5025 40.8852 60.9465 40.7622 60.2036 40.7622H59.1236V44.0297ZM59.1236 45.3833V49.3755H57.4898V39.3813H60.313C61.6027 39.3813 62.5575 39.6228 63.1773 40.1059C63.7971 40.589 64.107 41.3182 64.107 42.2934C64.107 43.5376 63.4598 44.424 62.1655 44.9526L64.9888 49.3755H63.1294L60.7368 45.3833H59.1236ZM72.6582 49.3755H67.0048V39.3813H72.6582V40.7622H68.6386V43.4829H72.4052V44.8501H68.6386V47.9878H72.6582V49.3755ZM79.6371 40.6391C78.6983 40.6391 77.96 40.9718 77.4223 41.6372C76.8845 42.3025 76.6156 43.2208 76.6156 44.3921C76.6156 45.618 76.8731 46.5454 77.3881 47.1743C77.9076 47.8032 78.6573 48.1176 79.6371 48.1176C80.0609 48.1176 80.4711 48.0766 80.8676 47.9946C81.2641 47.908 81.6765 47.7986 82.1049 47.6665V49.0678C81.321 49.3641 80.4324 49.5122 79.4389 49.5122C77.976 49.5122 76.8526 49.0701 76.0688 48.186C75.2849 47.2973 74.893 46.0281 74.893 44.3784C74.893 43.3393 75.0821 42.4301 75.4604 41.6508C75.8432 40.8715 76.3946 40.2745 77.1146 39.8598C77.8347 39.4451 78.6801 39.2378 79.6508 39.2378C80.6716 39.2378 81.615 39.4519 82.4809 39.8803L81.893 41.2407C81.5557 41.0812 81.198 40.9422 80.8197 40.8237C80.446 40.7006 80.0518 40.6391 79.6371 40.6391ZM86.452 44.0297H87.5868C88.3478 44.0297 88.8993 43.8885 89.2411 43.6059C89.5829 43.3234 89.7537 42.9041 89.7537 42.3481C89.7537 41.783 89.5692 41.3774 89.2 41.1313C88.8309 40.8852 88.2749 40.7622 87.5321 40.7622H86.452V44.0297ZM86.452 45.3833V49.3755H84.8182V39.3813H87.6414C88.9312 39.3813 89.8859 39.6228 90.5057 40.1059C91.1255 40.589 91.4354 41.3182 91.4354 42.2934C91.4354 43.5376 90.7883 44.424 89.494 44.9526L92.3172 49.3755H90.4579L88.0653 45.3833H86.452ZM102.167 39.3813V45.8481C102.167 46.5864 102.008 47.2335 101.689 47.7895C101.374 48.3409 100.916 48.7671 100.315 49.0678C99.7177 49.3641 99.0022 49.5122 98.1682 49.5122C96.9287 49.5122 95.9648 49.184 95.2766 48.5278C94.5885 47.8715 94.2444 46.9692 94.2444 45.8208V39.3813H95.885V45.7046C95.885 46.5294 96.0764 47.1378 96.4593 47.5297C96.8421 47.9217 97.43 48.1176 98.2229 48.1176C99.7633 48.1176 100.533 47.3087 100.533 45.6909V39.3813H102.167ZM105.284 49.3755V39.3813H106.918V49.3755H105.284ZM113.575 49.3755H111.942V40.7827H109.002V39.3813H116.515V40.7827H113.575V49.3755ZM118.613 49.3755V39.3813H120.247V49.3755H118.613ZM131.778 49.3755H129.775L124.86 41.4116H124.806L124.84 41.8559C124.904 42.7036 124.936 43.4783 124.936 44.1801V49.3755H123.452V39.3813H125.435L130.336 47.3042H130.377C130.368 47.1993 130.35 46.8188 130.322 46.1626C130.295 45.5018 130.281 44.9868 130.281 44.6176V39.3813H131.778V49.3755ZM139.065 43.9546H142.743V48.9721C142.141 49.1681 141.562 49.3071 141.006 49.3891C140.455 49.4712 139.858 49.5122 139.215 49.5122C137.702 49.5122 136.536 49.0656 135.715 48.1723C134.895 47.2745 134.485 46.0099 134.485 44.3784C134.485 42.7697 134.947 41.5118 135.873 40.6049C136.798 39.6935 138.071 39.2378 139.694 39.2378C140.737 39.2378 141.726 39.4383 142.661 39.8393L142.086 41.1997C141.275 40.826 140.464 40.6391 139.653 40.6391C138.586 40.6391 137.743 40.9741 137.124 41.644C136.504 42.3139 136.194 43.2299 136.194 44.3921C136.194 45.6134 136.472 46.5431 137.028 47.1811C137.588 47.8146 138.393 48.1313 139.441 48.1313C139.97 48.1313 140.535 48.0652 141.136 47.9331V45.3559H139.065V43.9546Z" fill="#2E2E30"/>
</svg>
